<mxfile host="app.diagrams.net" modified="2021-04-09T07:50:47.636Z" agent="5.0 (Windows)" etag="CNmmp3oNmfn_Jx0_5nKw" version="14.5.8" type="github">
  <diagram id="nZveTa355ZsHw2lZuSMk" name="Page-1">
    <mxGraphModel dx="868" dy="489" grid="1" gridSize="10" guides="1" tooltips="1" connect="1" arrows="1" fold="1" page="1" pageScale="1" pageWidth="1169" pageHeight="827" math="0" shadow="0">
      <root>
        <mxCell id="0" />
        <mxCell id="1" parent="0" />
        <mxCell id="iylL8Z7AtPQeR0AH1582-5" value="" style="edgeStyle=orthogonalEdgeStyle;rounded=0;orthogonalLoop=1;jettySize=auto;html=1;" edge="1" parent="1" source="iylL8Z7AtPQeR0AH1582-1" target="iylL8Z7AtPQeR0AH1582-4">
          <mxGeometry relative="1" as="geometry" />
        </mxCell>
        <mxCell id="iylL8Z7AtPQeR0AH1582-1" value="Patient arrives" style="ellipse;whiteSpace=wrap;html=1;" vertex="1" parent="1">
          <mxGeometry x="30" y="450" width="120" height="80" as="geometry" />
        </mxCell>
        <mxCell id="iylL8Z7AtPQeR0AH1582-4" value="Gives the document/report" style="rounded=1;whiteSpace=wrap;html=1;" vertex="1" parent="1">
          <mxGeometry x="220" y="460" width="120" height="60" as="geometry" />
        </mxCell>
      </root>
    </mxGraphModel>
  </diagram>
</mxfile>
